<?xml version="1.0" encoding="utf-8"?>
<!-- Generator: Adobe Illustrator 16.0.4, SVG Export Plug-In . SVG Version: 6.00 Build 0)  -->
<!DOCTYPE svg PUBLIC "-//W3C//DTD SVG 1.1//EN" "http://www.w3.org/Graphics/SVG/1.1/DTD/svg11.dtd">
<svg version="1.1" id="Layer_1" xmlns="http://www.w3.org/2000/svg" xmlns:xlink="http://www.w3.org/1999/xlink" x="0px" y="0px"
	 width="456px" height="407px" viewBox="-4.193 -3.742 456 407" enable-background="new -4.193 -3.742 456 407"
	 xml:space="preserve">
<polygon fill="none" stroke="#FCFFF7" stroke-width="10" stroke-miterlimit="10" points="132.748,357.423 41.847,199.923 
	132.748,42.423 314.551,42.423 405.451,199.923 314.551,357.423 "/>
<line fill="none" stroke="#FCFFF7" stroke-width="10" stroke-miterlimit="10" x1="314.551" y1="42.423" x2="132.748" y2="357.416"/>
<line fill="none" stroke="#FCFFF7" stroke-width="10" stroke-miterlimit="10" x1="132.748" y1="42.423" x2="314.551" y2="357.423"/>
<line fill="none" stroke="#FCFFF7" stroke-width="10" stroke-miterlimit="10" x1="42.254" y1="199.756" x2="405.451" y2="199.923"/>
<circle fill="#040404" stroke="#F7EC2F" stroke-width="13" stroke-miterlimit="10" cx="132.795" cy="42.254" r="37.254"/>
<circle fill="#040404" stroke="#A456B2" stroke-width="14" stroke-miterlimit="10" cx="314.932" cy="42.254" r="37.254"/>
<path fill="#040404" stroke="#31ACBC" stroke-width="14" stroke-miterlimit="10" d="M368.104,199.757
	c0,20.574,16.684,37.253,37.256,37.253c20.571,0,37.255-16.679,37.255-37.253s-16.684-37.254-37.255-37.254
	C384.786,162.502,368.104,179.182,368.104,199.757z"/>
<circle fill="#040404" stroke="#F9941C" stroke-width="14" stroke-miterlimit="10" cx="314.932" cy="357.259" r="37.254"/>
<circle fill="#040404" stroke="#DD3A56" stroke-width="14" stroke-miterlimit="10" cx="132.794" cy="357.259" r="37.254"/>
<circle fill="#040404" stroke="#6CBA91" stroke-width="14" stroke-miterlimit="10" cx="42.254" cy="199.757" r="37.254"/>
</svg>
